<?xml version="1.0" standalone="no"?>
<!DOCTYPE svg PUBLIC "-//W3C//DTD SVG 20010904//EN"
 "http://www.w3.org/TR/2001/REC-SVG-20010904/DTD/svg10.dtd">
<svg version="1.0" xmlns="http://www.w3.org/2000/svg"
 width="1080.000000pt" height="1080.000000pt" viewBox="0 0 1080.000000 1080.000000"
 preserveAspectRatio="xMidYMid meet">

<!-- White background circle -->
<circle cx="540" cy="540" r="500" fill="#FFFFFF" stroke="#E0E0E0" stroke-width="8"/>

<g transform="translate(0.000000,1080.000000) scale(0.100000,-0.100000)"
fill="#ED1C24" stroke="none">
<path d="M5368 7973 c-282 -585 -455 -944 -598 -1248 -50 -106 -140 -294 -233
-487 l-76 -158 -851 -2 -851 -3 117 -105 c64 -58 162 -144 218 -192 l101 -88
749 3 750 2 143 275 c79 151 196 376 260 500 383 743 346 676 360 658 12 -14
8 -7 303 -568 117 -223 256 -486 309 -585 53 -99 107 -201 120 -226 l24 -46
561 -6 c309 -4 647 -7 752 -7 l191 0 41 33 c73 58 387 338 390 348 2 5 -300 9
-800 9 -441 0 -826 3 -853 6 l-51 6 -66 142 c-243 516 -364 769 -393 826 -18
36 -64 133 -103 215 -70 151 -110 235 -261 550 -45 94 -98 205 -119 248 -20
42 -39 77 -43 77 -3 0 -44 -80 -91 -177z"/>
<path d="M3152 5442 c-56 -20 -105 -60 -128 -104 -22 -43 -18 -129 9 -169 36
-54 100 -96 164 -109 70 -13 199 -56 231 -77 13 -8 30 -30 38 -50 27 -63 -3
-126 -78 -164 -35 -18 -51 -20 -112 -14 -114 12 -162 44 -196 131 -17 47 -20
49 -55 48 -19 -1 -38 -4 -42 -7 -10 -10 17 -100 40 -135 38 -56 113 -100 193
-112 135 -21 251 16 308 98 25 35 31 55 34 110 5 118 -44 172 -197 218 -226
67 -245 76 -260 129 -11 41 7 93 42 119 24 18 43 21 126 21 91 0 100 -2 134
-28 24 -18 41 -42 49 -68 12 -40 12 -41 51 -36 21 3 41 8 44 11 10 10 -29 97
-58 131 -40 46 -99 67 -199 72 -66 3 -97 -1 -138 -15z"/>
<path d="M5847 5453 c-4 -3 -7 -179 -7 -390 l0 -383 278 2 277 3 0 40 0 40
-232 3 -233 2 0 129 0 128 46 7 c26 3 120 6 210 6 l164 0 0 40 0 40 -197 0
c-109 0 -204 4 -211 8 -9 6 -12 38 -10 123 l3 114 223 3 222 2 0 45 0 45 -263
0 c-145 0 -267 -3 -270 -7z"/>
<path d="M6558 5454 c-5 -4 -8 -180 -8 -391 l0 -383 40 0 40 0 0 154 c0 85 3
161 6 170 9 22 182 23 225 1 20 -11 63 -67 131 -170 l101 -155 49 0 50 0 -23
38 c-71 116 -137 213 -176 260 -25 29 -44 54 -42 56 2 2 26 12 54 22 63 24
122 81 131 129 3 20 4 61 2 91 -6 68 -43 118 -113 154 -46 23 -61 24 -255 28
-113 2 -208 1 -212 -4z m444 -109 c78 -58 62 -184 -28 -221 -23 -10 -78 -14
-183 -14 -126 0 -150 2 -155 16 -8 20 -8 192 0 222 l7 23 166 -3 c147 -3 169
-5 193 -23z"/>
<path d="M7320 5070 l0 -390 40 0 40 0 0 108 c0 59 3 130 6 158 l7 52 162 3
c156 4 163 5 203 31 22 15 54 49 69 75 24 41 28 59 28 123 0 94 -29 153 -91
187 -49 27 -172 43 -341 43 l-123 0 0 -390z m407 280 c42 -25 54 -51 56 -114
3 -125 -37 -150 -233 -151 l-135 0 -8 116 c-4 73 -4 127 3 143 l10 26 137 0
c119 0 142 -3 170 -20z"/>
<path d="M5583 5403 c-18 -12 -23 -25 -23 -58 0 -23 -3 -57 -6 -74 -6 -26 -11
-31 -35 -31 -25 0 -29 -4 -29 -29 0 -24 5 -31 29 -36 27 -6 28 -8 34 -88 4
-45 7 -143 7 -217 0 -105 3 -140 15 -157 24 -34 120 -55 154 -34 20 13 5 71
-19 71 -37 0 -68 22 -74 52 -10 51 -7 338 4 359 8 14 21 19 51 19 38 0 40 2
37 28 -3 24 -8 28 -48 32 l-45 5 -3 88 c-3 92 -8 99 -49 70z"/>
<path d="M3885 5231 c-22 -10 -49 -28 -59 -40 -25 -27 -36 -27 -36 2 0 31 -18
47 -52 47 -37 0 -39 -17 -36 -310 l3 -245 34 -3 c20 -2 37 2 42 10 5 7 9 91 9
186 0 192 6 220 59 265 36 30 90 36 135 15 38 -16 46 -61 46 -243 0 -88 3
-177 6 -197 6 -35 9 -38 39 -38 l33 0 4 198 c4 222 10 242 70 273 53 27 109
25 140 -6 23 -23 25 -33 31 -161 4 -76 7 -175 7 -221 l0 -83 35 0 35 0 0 228
c0 266 -4 282 -83 321 -65 32 -119 24 -187 -30 -27 -21 -52 -39 -55 -39 -4 0
-18 14 -33 31 -48 58 -116 73 -187 40z"/>
<path d="M4742 5239 c-58 -11 -102 -38 -129 -79 -32 -46 -30 -76 5 -83 32 -6
45 3 62 44 35 83 210 78 246 -7 17 -42 18 -68 1 -82 -7 -6 -57 -18 -112 -27
-180 -30 -249 -81 -247 -182 2 -137 161 -196 308 -113 58 33 70 32 84 -6 8
-20 17 -24 48 -24 l39 0 -7 43 c-4 23 -11 123 -14 222 -4 99 -11 194 -17 210
-26 77 -133 111 -267 84z m194 -294 c4 -9 3 -40 -1 -71 -8 -68 -49 -114 -118
-134 -93 -25 -167 14 -167 89 0 61 29 79 185 115 81 19 95 19 101 1z"/>
<path d="M5310 5213 c-41 -36 -55 -36 -62 2 -5 28 -44 32 -57 6 -8 -14 -10
-107 -9 -278 l3 -258 38 -3 37 -3 0 63 c1 194 12 324 31 364 23 49 60 68 113
59 32 -7 37 -5 46 20 15 38 13 42 -21 54 -52 18 -77 13 -119 -26z"/>
<path d="M4163 4488 c-11 -14 -72 -161 -218 -523 -51 -126 -103 -252 -115
-280 -12 -27 -64 -153 -115 -280 -52 -126 -132 -323 -178 -437 -47 -115 -83
-208 -80 -208 3 0 64 31 137 69 72 38 174 91 226 118 111 58 509 266 690 361
69 36 154 80 189 99 35 19 138 73 230 120 162 84 398 209 474 252 21 11 46 21
56 21 10 0 54 -19 97 -43 79 -44 209 -112 469 -247 77 -40 219 -114 315 -165
96 -51 229 -120 295 -153 66 -34 143 -74 170 -90 28 -15 131 -70 230 -122 99
-51 233 -122 299 -157 65 -35 121 -62 123 -59 3 3 -29 87 -70 188 -42 101
-110 269 -153 373 -42 105 -96 235 -119 290 -81 188 -345 835 -345 844 0 5 -7
17 -16 25 -13 13 -45 16 -190 16 -135 0 -174 -3 -174 -13 0 -10 68 -170 124
-292 8 -16 32 -70 54 -120 22 -49 63 -141 91 -202 28 -62 51 -115 51 -118 0
-2 14 -33 30 -67 17 -34 30 -63 30 -65 0 -11 -36 2 -84 30 -30 17 -94 55 -141
82 -47 28 -127 74 -178 104 -51 29 -132 77 -182 106 -49 29 -151 88 -225 131
-74 42 -169 97 -210 122 -148 89 -284 162 -301 162 -10 0 -20 -4 -24 -9 -3 -5
-29 -23 -58 -39 -79 -43 -441 -252 -627 -362 -419 -246 -585 -340 -588 -330
-3 8 144 348 314 727 35 77 64 144 64 147 0 3 -80 6 -179 6 -131 0 -181 -3
-188 -12z"/>
</g>
</svg>
