<svg width="40" height="40" viewBox="0 0 40 40" xmlns="http://www.w3.org/2000/svg">
  <!-- Fingerprint Icon -->
  <path d="M20 2 C12 2 6 8 6 16 C6 20 8 24 10 26 C12 28 14 30 16 32 C18 34 20 36 20 38 C20 36 22 34 24 32 C26 30 28 28 30 26 C32 24 34 20 34 16 C34 8 28 2 20 2 Z" 
        fill="none" 
        stroke="currentColor" 
        stroke-width="2"/>
  
  <!-- Inner lines -->
  <path d="M12 12 C12 8 16 6 20 6 C24 6 28 8 28 12" 
        fill="none" 
        stroke="currentColor" 
        stroke-width="1.5"/>
  
  <path d="M14 18 C14 16 16 14 20 14 C24 14 26 16 26 18" 
        fill="none" 
        stroke="currentColor" 
        stroke-width="1.5"/>
</svg>
