<?xml version="1.0" encoding="UTF-8"?>
<svg version="1.1" xmlns="http://www.w3.org/2000/svg" width="512" height="512">
<path d="M0 0 C4.8846525 2.26787438 7.73212562 5.1153475 10 10 C11.00838422 17.4908542 10.4608529 21.8296125 6 28 C4.55593078 29.61075619 3.06429158 31.17988137 1.53277588 32.70773315 C0.64379105 33.59946732 -0.24519379 34.49120148 -1.16111755 35.40995789 C-2.13824311 36.38000709 -3.11546494 37.34995933 -4.09277344 38.31982422 C-5.12826289 39.35474894 -6.16331098 40.39011542 -7.19795227 41.42588806 C-9.99688536 44.22539322 -12.80192675 47.01870378 -15.60813046 49.81091833 C-18.54387605 52.73413237 -21.47393104 55.66303915 -24.40460205 58.59133911 C-29.95014775 64.13067716 -35.50077039 69.66489865 -41.05324864 75.19728673 C-47.37640335 81.49806016 -53.69385676 87.80453681 -60.01084471 94.11149192 C-73.00090938 107.0806708 -85.99809377 120.04269313 -99 133 C-98.38330444 133.33176743 -97.76660889 133.66353485 -97.13122559 134.00535583 C-94.28336793 135.54019712 -91.43855956 137.0806107 -88.59375 138.62109375 C-87.62405273 139.14264038 -86.65435547 139.66418701 -85.65527344 140.20153809 C-67.38719744 150.11204581 -50.82402831 162.29838264 -35.68359375 176.50390625 C-33.39715027 178.63059822 -31.07012916 180.67072561 -28.6875 182.6875 C-25.51465852 185.45157049 -22.74162541 188.38873931 -20.02734375 191.6015625 C-18.47911284 193.43318827 -16.91099072 195.23292949 -15.31640625 197.0234375 C11.21879578 227.03139677 11.21879578 227.03139677 11 245 C9.39747876 264.94566613 -6.41557196 280.59613658 -19 295 C-19.7940625 295.9178125 -20.588125 296.835625 -21.40625 297.78125 C-25.32663487 302.23867389 -29.32453878 306.35461203 -33.8671875 310.17578125 C-36.31860203 312.27250393 -38.6482442 314.47965762 -41 316.6875 C-79.8068627 351.87947686 -131.3337233 372.8470984 -183 379 C-183.77883545 379.09571289 -184.5576709 379.19142578 -185.36010742 379.29003906 C-230.06327802 384.09581292 -279.17583326 378.45057832 -319.828125 358.6171875 C-321.97703621 357.77003964 -321.97703621 357.77003964 -323.90330505 358.74317932 C-326.18978074 360.11376016 -327.84111026 361.60072196 -329.71899414 363.49194336 C-330.44232941 364.21541962 -331.16566467 364.93889587 -331.91091919 365.68429565 C-332.69441742 366.47812653 -333.47791565 367.2719574 -334.28515625 368.08984375 C-335.11812225 368.92573029 -335.95108826 369.76161682 -336.80929565 370.62283325 C-339.08959993 372.9127366 -341.36546337 375.20695135 -343.63975143 377.50282669 C-346.02266088 379.90570845 -348.41205434 382.30212189 -350.80102539 384.69897461 C-356.87328524 390.79342292 -362.93706766 396.89627447 -369 403 C-375.54561199 409.58965279 -382.09264745 416.17785148 -388.64949322 422.75632954 C-391.02693323 425.14209765 -393.40215896 427.52998963 -395.77249146 429.92282104 C-398.41551674 432.58970966 -401.06451182 435.25053177 -403.71484375 437.91015625 C-404.49834198 438.70398712 -405.28184021 439.49781799 -406.08908081 440.31570435 C-406.81241608 441.0391806 -407.53575134 441.76265686 -408.28100586 442.50805664 C-409.21897255 443.45268517 -409.21897255 443.45268517 -410.17588806 444.41639709 C-414.82246816 448.45032593 -419.12153233 448.42859548 -425.0859375 448.3125 C-430.38740101 447.74397844 -432.83972495 445.22134216 -436.375 441.5 C-438.72325726 436.44221514 -438.97097307 431.48314207 -438 426 C-435.00516604 420.86753077 -431.19082075 416.90929572 -426.99092102 412.73923874 C-426.28176383 412.02717467 -425.57260664 411.31511059 -424.84195983 410.58146882 C-422.45836319 408.19055851 -420.06769189 405.80685081 -417.67700195 403.42303467 C-415.9518098 401.69553865 -414.22705398 399.96760679 -412.50269794 398.23927617 C-408.74947989 394.47943979 -404.99316515 390.72273804 -401.2340889 386.96876144 C-395.64434192 381.3865771 -390.06032034 375.79869162 -384.47741243 370.20966836 C-374.506922 360.22864337 -364.53071219 350.25335056 -354.55206618 340.28047993 C-345.8209103 331.55435273 -337.09161262 322.82637202 -328.36416626 314.09653473 C-327.78552876 313.51774446 -327.20689127 312.9389542 -326.6107193 312.34262483 C-324.26193696 309.99321982 -321.91316168 307.64380775 -319.56439804 305.29438404 C-297.52790499 283.25177188 -275.48558141 261.2149984 -253.44064803 239.18082783 C-233.84582873 219.59550237 -214.25618978 200.00500955 -194.67089844 180.41015625 C-172.67430296 158.40285751 -150.67448758 136.39878589 -128.6694479 114.39993024 C-126.32490347 112.05602727 -123.98036694 109.71211641 -121.63583374 107.36820221 C-121.05853253 106.79105916 -120.48123133 106.2139161 -119.88643614 105.61928387 C-111.1597631 96.894888 -102.43556469 88.16802272 -93.71255493 79.43996429 C-83.79797557 69.5196753 -73.87984784 59.60294949 -63.95697999 49.69095084 C-58.40017446 44.14003098 -52.84615211 38.58636001 -47.29605452 33.02873302 C-43.15911529 28.88679961 -39.01699771 24.75007309 -34.87278688 20.61541453 C-33.19142172 18.93629471 -31.51176348 17.25546371 -29.83393443 15.5728105 C-27.56353976 13.29638624 -25.28715268 11.02613243 -23.00907898 8.7573967 C-22.02063155 7.76192577 -22.02063155 7.76192577 -21.0122155 6.74634433 C-20.40508283 6.1442187 -19.79795017 5.54209308 -19.17241955 4.92172122 C-18.65233922 4.40177641 -18.1322589 3.8818316 -17.59641856 3.34613089 C-12.39320632 -1.04131793 -6.49375144 -0.69638085 0 0 Z M-128.88427734 161.08959961 C-129.88629706 162.09272294 -130.86933541 163.11504904 -131.8359375 164.15234375 C-132.62226059 164.95352379 -132.62226059 164.95352379 -133.42446899 165.77088928 C-135.09180759 167.47735259 -136.73315813 169.20652682 -138.375 170.9375 C-139.5022752 172.09989129 -140.63116476 173.26071932 -141.76171875 174.41992188 C-144.52685869 177.26216064 -147.26893884 180.12501565 -150 183 C-148.33754733 186.48360655 -146.30864716 189.18147938 -143.875 192.1875 C-128.99741358 211.37430988 -124.52541905 235.35683556 -127.42578125 259.14453125 C-131.38439287 281.94904849 -144.86168423 302.52831138 -163.6484375 315.90234375 C-177.26668727 324.42565392 -192.81554634 330.31320584 -209 331 C-209.82242188 331.03996094 -210.64484375 331.07992187 -211.4921875 331.12109375 C-235.21167133 331.70548683 -255.44413103 323.31665241 -274 309 C-277.66752005 310.5391801 -279.98580573 312.75485452 -282.765625 315.5703125 C-284.09980469 316.91416016 -284.09980469 316.91416016 -285.4609375 318.28515625 C-286.38132812 319.22230469 -287.30171875 320.15945313 -288.25 321.125 C-289.19484856 322.07988637 -290.14015633 323.03431859 -291.0859375 323.98828125 C-293.39518338 326.32109087 -295.69963203 328.65844086 -298 331 C-266.17622126 352.21585249 -209.01351618 351.18998884 -173 344 C-128.26794598 334.81893851 -88.1095001 315.73367625 -55 284 C-54.12190674 283.17072998 -54.12190674 283.17072998 -53.22607422 282.32470703 C-43.94059527 273.52317776 -35.75456001 264.2404996 -28.31103516 253.82373047 C-27.10510616 252.14620913 -25.84205262 250.510145 -24.57421875 248.87890625 C-22.78328173 246.12206188 -22.78328173 246.12206188 -22.91796875 243.09765625 C-24.37175302 238.93573956 -26.61346424 235.89077074 -29.3125 232.4375 C-29.85156982 231.73568604 -30.39063965 231.03387207 -30.94604492 230.31079102 C-36.25375349 223.49960473 -41.98566368 217.18694508 -48 211 C-48.58152832 210.39269043 -49.16305664 209.78538086 -49.76220703 209.15966797 C-58.27351889 200.28607627 -67.01416847 192.18511784 -77 185 C-77.64710938 184.53029785 -78.29421875 184.0605957 -78.9609375 183.57666016 C-88.30779505 176.86867834 -98.06554968 171.15843164 -108.25 165.8125 C-109.32161377 165.24740723 -110.39322754 164.68231445 -111.49731445 164.10009766 C-112.51398193 163.57851074 -113.53064941 163.05692383 -114.578125 162.51953125 C-115.47950195 162.05651611 -116.38087891 161.59350098 -117.30957031 161.11645508 C-123.2696368 158.53461205 -123.2696368 158.53461205 -128.88427734 161.08959961 Z M-177.61376953 210.38671875 C-178.70859409 211.48186113 -179.79790282 212.58253455 -180.8828125 213.6875 C-181.45707977 214.26459717 -182.03134705 214.84169434 -182.62301636 215.4362793 C-184.4617411 217.28622702 -186.29340305 219.14299749 -188.125 221 C-189.3680316 222.25305865 -190.61151546 223.50566884 -191.85546875 224.7578125 C-194.90892412 227.83335632 -197.95606145 230.91503802 -201 234 C-200.67692871 234.76965088 -200.35385742 235.53930176 -200.02099609 236.33227539 C-198.3028627 240.82152542 -198.43006274 245.26674053 -199 250 C-201.0023965 254.004793 -203.17998877 256.6587028 -207 259 C-213.60326114 261.20108705 -218.39587093 259.88689402 -225 258 C-233.58 266.58 -242.16 275.16 -251 284 C-241.12961812 293.87038188 -229.38125609 298.9460994 -215.23828125 299.01953125 C-197.50629899 298.08441179 -183.32232382 292.15071534 -171 279 C-161.39989221 266.60980352 -158.11704689 253.45167949 -159 238 C-160.59178298 227.08684378 -165.11675344 215.88324656 -173 208 C-175.34376949 207.77523155 -175.34376949 207.77523155 -177.61376953 210.38671875 Z " fill="#000000" transform="translate(470,32)"/>
<path d="M0 0 C9.17404985 4.1373166 15.38964883 14.6784668 21.34375 22.515625 C24.1315415 26.18399135 26.96618546 29.81443421 29.8125 33.4375 C30.4782605 34.287677 30.4782605 34.287677 31.1574707 35.1550293 C33.32733791 37.91597436 35.53234204 40.62432364 37.82421875 43.28515625 C40 46 40 46 40 48 C40.93457031 47.74605469 41.86914062 47.49210937 42.83203125 47.23046875 C58.39089766 43.11023182 73.9300698 40.76923313 90 40 C89.97643433 38.77482666 89.97643433 38.77482666 89.95239258 37.52490234 C89.8898606 33.80833923 89.85095056 30.09188704 89.8125 26.375 C89.78736328 25.08980469 89.76222656 23.80460937 89.73632812 22.48046875 C89.72182617 20.61455078 89.72182617 20.61455078 89.70703125 18.7109375 C89.68346558 16.99849854 89.68346558 16.99849854 89.65942383 15.25146484 C90.11296236 10.92155358 91.55098847 7.55224899 94.53515625 4.35546875 C100.50331172 -0.20841484 104.52772177 -0.76096751 112 0 C116.45146251 2.18526342 119.18885145 4.9394521 122 9 C123.15927528 12.47782583 123.11313066 15.18803257 123.09765625 18.85546875 C123.09553383 19.84792351 123.09553383 19.84792351 123.09336853 20.86042786 C123.08777996 22.96949828 123.07522965 25.07846177 123.0625 27.1875 C123.05748352 28.61913909 123.05292087 30.05077985 123.04882812 31.48242188 C123.0378143 34.98831588 123.02055755 38.4941475 123 42 C123.77859375 42.27714844 124.5571875 42.55429688 125.359375 42.83984375 C129.115084 44.48991117 130.14977001 46.36561966 132 50 C133.62230914 56.06986411 133.19558327 60.460989 130 66 C126.94284025 69.62032076 124.489225 71.56603173 120 73 C117.15234375 73.16015625 117.15234375 73.16015625 113.9375 73.0625 C73.97028892 72.60738683 34.28652715 80.86415897 -1 100 C-1.64598145 100.34111816 -2.29196289 100.68223633 -2.95751953 101.03369141 C-19.00881272 109.51563245 -33.41757883 119.99104173 -47 132 C-47.91652344 132.7940625 -48.83304687 133.588125 -49.77734375 134.40625 C-54.96703187 138.96381069 -59.57663041 143.70645934 -64 149 C-64.8559375 149.9796875 -65.711875 150.959375 -66.59375 151.96875 C-77.55729396 163.23801436 -77.55729396 163.23801436 -83.06640625 176.84375 C-81.57300397 181.26378312 -79.07395965 184.43704084 -76.1875 188.0625 C-75.60363525 188.80910889 -75.01977051 189.55571777 -74.41821289 190.32495117 C-67.9770017 198.45970797 -61.02288844 206.03207325 -53.65234375 213.328125 C-53.10392822 213.87106201 -52.5555127 214.41399902 -51.99047852 214.97338867 C-50.94361842 216.00316234 -49.89103909 217.02716679 -48.83178711 218.04418945 C-44.40474539 222.35963142 -42.71177131 225.17952823 -42.625 231.375 C-42.72515942 236.38964829 -43.55742196 239.18525136 -47 243 C-50.97303421 246.50005395 -53.4102221 248.1589498 -58.6875 248.3125 C-59.93080078 248.36857422 -59.93080078 248.36857422 -61.19921875 248.42578125 C-69.76325898 247.12385603 -75.46866539 239.99539771 -81.25 234.125 C-81.71532135 233.65569061 -82.1806427 233.18638123 -82.6600647 232.70285034 C-89.56241943 225.7310372 -96.06825184 218.62282455 -101.80273438 210.65478516 C-103.08783226 208.87860378 -104.40895199 207.13297755 -105.734375 205.38671875 C-113.65086312 194.82951839 -118.93868463 185.01278217 -117.78125 171.43359375 C-115.97613327 160.34253998 -109.7295977 151.7184565 -103 143 C-102.34773438 142.15308594 -101.69546875 141.30617187 -101.0234375 140.43359375 C-96.96779092 135.27112728 -92.70249532 130.34084812 -88.2734375 125.49609375 C-86.78180459 123.85837308 -85.30709219 122.20504577 -83.8515625 120.53515625 C-59.82593459 93.08349115 -27.3296206 73.10402385 6 59 C2.44990171 54.24503434 -1.12920921 49.51418553 -4.74511719 44.80908203 C-22.9371848 21.12887419 -22.9371848 21.12887419 -22 12 C-18.3135154 1.5549603 -10.24259676 -0.99074905 0 0 Z " fill="#000000" transform="translate(149,100)"/>
</svg>
