<?xml version="1.0" encoding="UTF-8"?>
<svg version="1.1" xmlns="http://www.w3.org/2000/svg" width="512" height="512">
<path d="M0 0 C9.64696803 9.00950318 18.83514645 18.27782314 26.88427734 28.75976562 C27.89760576 30.03399464 28.91201127 31.30736752 29.92724609 32.58007812 C37.76527366 42.50274926 44.58978641 52.79779725 50.88427734 63.75976562 C51.71958984 65.17708984 51.71958984 65.17708984 52.57177734 66.62304688 C59.39508111 79.03089986 60.28720321 92.80645623 56.57177734 106.32226562 C49.06348384 126.77496476 33.71299462 146.05877086 18.88427734 161.75976562 C17.79601927 163.02638429 16.7125955 164.29717409 15.63427734 165.57226562 C7.2118283 175.20349208 -2.0107453 183.91902775 -12.11572266 191.75976562 C-13.39333556 192.77765706 -14.67065934 193.79591144 -15.94775391 194.81445312 C-55.26922189 225.86963366 -103.3260961 244.75975027 -153.11572266 249.75976562 C-154.19080078 249.87191406 -155.26587891 249.9840625 -156.37353516 250.09960938 C-224.28965262 256.07295465 -293.30509056 234.72707524 -346.11572266 191.75976562 C-346.71932617 191.27185547 -347.32292969 190.78394531 -347.94482422 190.28125 C-361.61237657 179.15141949 -374.37227802 166.75036538 -385.11572266 152.75976562 C-386.12905107 151.48553661 -387.14345658 150.21216373 -388.15869141 148.93945312 C-395.99523766 139.01865727 -402.8328435 128.72675558 -409.11572266 117.75976562 C-409.95103516 116.32503906 -409.95103516 116.32503906 -410.80322266 114.86132812 C-417.8276618 101.94137756 -418.34375656 88.8394694 -414.49853516 74.91210938 C-412.44189577 68.27783822 -408.87285905 62.53899411 -405.11572266 56.75976562 C-404.72578125 56.14746094 -404.33583984 55.53515625 -403.93408203 54.90429688 C-398.13805058 45.82166277 -391.89578761 37.13217582 -385.11572266 28.75976562 C-384.67566895 28.21529785 -384.23561523 27.67083008 -383.78222656 27.10986328 C-372.32607449 13.06512053 -359.56542462 -0.26401846 -345.11572266 -11.24023438 C-343.9174527 -12.17858548 -342.71956267 -13.11742188 -341.52197266 -14.05664062 C-302.21458293 -44.55629986 -254.56660397 -63.27423678 -205.11572266 -68.24023438 C-204.04064453 -68.35238281 -202.96556641 -68.46453125 -201.85791016 -68.58007812 C-128.43446096 -75.03780317 -54.2984698 -49.72612085 0 0 Z M-329.11572266 16.75976562 C-329.86724609 17.40300781 -330.61876953 18.04625 -331.39306641 18.70898438 C-350.39113703 35.30463675 -365.60711883 53.53929447 -379.11572266 74.75976562 C-380.15019531 76.36271484 -380.15019531 76.36271484 -381.20556641 77.99804688 C-384.09919276 82.81167942 -386.28303646 87.20944446 -385.87744141 92.92382812 C-377.65244931 123.54610637 -342.91564585 156.34408923 -318.11572266 173.75976562 C-317.43864258 174.23816895 -316.7615625 174.71657227 -316.06396484 175.20947266 C-265.08868664 210.9059012 -203.21507391 226.83907476 -141.41650391 216.72460938 C-100.3802757 209.45022499 -60.55419767 192.58095417 -29.11572266 164.75976562 C-27.9884375 163.79490234 -27.9884375 163.79490234 -26.83837891 162.81054688 C-7.84030828 146.2148945 7.37567352 127.98023678 20.88427734 106.75976562 C21.91875 105.15681641 21.91875 105.15681641 22.97412109 103.52148438 C25.86774745 98.70785183 28.05159115 94.31008679 27.64599609 88.59570312 C19.421004 57.97342488 -15.31579946 25.17544202 -40.11572266 7.75976562 C-40.79280273 7.2813623 -41.46988281 6.80295898 -42.16748047 6.31005859 C-121.56923272 -49.29256046 -226.47489786 -53.17567858 -329.11572266 16.75976562 Z " fill="#000000" transform="translate(435.11572265625,165.240234375)"/>
<path d="M0 0 C18.72752691 17.09531126 29.34657363 39.96719163 30.71484375 65.296875 C31.41024807 91.69200421 22.36886165 114.8170063 4.5546875 134.33203125 C-11.55624592 150.90796615 -33.30083673 161.01745689 -56.4453125 162.33203125 C-57.28707031 162.38488281 -58.12882812 162.43773437 -58.99609375 162.4921875 C-85.06006867 163.32133193 -108.27770217 153.82907003 -127.4453125 136.33203125 C-145.71102453 118.57872368 -155.18216159 94.96547927 -155.6328125 69.64453125 C-155.31397677 42.54349444 -144.92665619 20.27927865 -126.234375 1.05859375 C-90.7337902 -32.3304321 -36.23763895 -30.82825226 0 0 Z M-106.05859375 25.8515625 C-118.03265023 38.29595835 -124.23998975 53.14651744 -124.4453125 70.33203125 C-123.3782049 87.66264919 -116.54286267 103.29380812 -103.8828125 115.26953125 C-90.81312351 126.32849886 -74.86188208 131.9029491 -57.7734375 131.17578125 C-40.75468426 129.20916976 -25.53236473 121.43491116 -14.4453125 108.33203125 C-4.05022345 94.58368767 1.01549096 78.19452548 -1.0703125 61.01953125 C-4.16411692 43.76863444 -12.8364213 29.6520762 -26.8203125 19.01953125 C-52.20784389 1.44354798 -83.72857055 4.92373856 -106.05859375 25.8515625 Z " fill="#000000" transform="translate(318.4453125,186.66796875)"/>
</svg>
