<svg version="1.1" xmlns="http://www.w3.org/2000/svg" width="512px" height="512px" transform="rotate(0) scale(1, 1)">
<path d="M0 0 C0.86753906 0.72445312 1.73507812 1.44890625 2.62890625 2.1953125 C7.55530233 6.44651724 11.882792 10.96785689 16 16 C16.83402344 16.99644531 17.66804687 17.99289063 18.52734375 19.01953125 C34.17032396 38.0354508 44.60138133 59.99393309 50 84 C50.16371094 84.69947754 50.32742188 85.39895508 50.49609375 86.11962891 C67.0444964 160.29681804 42.26152879 258.63288403 2.83984375 321.5 C0.95252384 324.38163359 -0.99182374 327.20145718 -3 330 C-4.02480469 331.43472656 -4.02480469 331.43472656 -5.0703125 332.8984375 C-9.23795981 338.58974081 -13.62882016 344.05678634 -18.1875 349.4375 C-18.91791504 350.30640869 -18.91791504 350.30640869 -19.66308594 351.19287109 C-24.38339281 356.6849817 -28.74078906 361.59818765 -36.3125 362.3125 C-41.36625728 361.88421548 -44.26677035 359.92396784 -47.6328125 356.1875 C-50.21101145 352.06238168 -49.88713229 347.66396758 -49 343 C-47.14681077 339.84601449 -44.6047509 337.5439578 -42 335 C8.710991 277.74283977 24.91585915 198.26296625 25.4375 123.75 C25.45582382 122.34462479 25.45582382 122.34462479 25.47451782 120.91085815 C25.65757153 104.29567719 23.94068552 87.84260056 17.8125 72.25 C17.51770752 71.47962402 17.22291504 70.70924805 16.91918945 69.91552734 C4.6695253 39.03279466 -19.58970183 14.30211623 -49.90087891 0.87890625 C-82.07811856 -12.59376911 -116.37101788 -13.27507158 -148.86425781 -0.40112305 C-154.24848002 1.80602535 -159.40708258 4.17496106 -164.5 7 C-168.51409955 9.06166337 -171.50323385 9.53531368 -175.953125 8.72265625 C-179.93392385 7.31722154 -183.0852609 4.8294782 -185 1 C-185.2734375 -1.390625 -185.2734375 -1.390625 -185.375 -4.25 C-185.42398438 -5.18328125 -185.47296875 -6.1165625 -185.5234375 -7.078125 C-184.81539925 -11.0304579 -182.88584627 -13.3590814 -180 -16 C-164.97503547 -26.12387409 -146.61328657 -31.54048891 -129 -35 C-127.93652344 -35.22558594 -126.87304688 -35.45117188 -125.77734375 -35.68359375 C-80.7244629 -43.77859712 -34.54305718 -28.90179729 0 0 Z " fill="#ffffff" transform="translate(357,139)"/>
<path d="M0 0 C11.00443587 9.39543219 25.71853992 23.95745089 28.42578125 38.95703125 C28.64547217 42.95806893 28.12599282 45.27678414 26.3671875 48.9296875 C23.62653792 51.95882651 21.89168313 53.30390588 17.9921875 54.5546875 C13.55389013 54.74288386 10.25039953 54.36423478 6.47265625 51.93359375 C3.5516655 49.13220262 1.77697274 46.0684427 -0.1328125 42.5546875 C-10.75223113 24.1120877 -26.52645388 12.64375517 -46.8203125 6.2421875 C-68.34531023 0.86642354 -89.21870924 5.30204449 -108.0078125 16.5546875 C-125.56116295 28.27260777 -135.58758523 45.60613164 -140.54003906 65.71582031 C-141.17200822 69.55117383 -141.27805926 73.37650107 -141.40234375 77.25390625 C-141.4682917 79.021761 -141.53514322 80.78958222 -141.6027832 82.55737305 C-141.63763824 83.48431976 -141.67249329 84.41126648 -141.70840454 85.36630249 C-142.81260825 113.7428624 -145.07104868 141.92624992 -152.0078125 169.5546875 C-152.25370117 170.53550293 -152.49958984 171.51631836 -152.75292969 172.52685547 C-159.71142323 199.56195617 -170.23261694 224.53307206 -190.0078125 244.5546875 C-190.58789062 245.20695312 -191.16796875 245.85921875 -191.765625 246.53125 C-200.27557014 255.89646601 -212.14578399 261.73389934 -224.0078125 265.5546875 C-224.75804687 265.81121094 -225.50828125 266.06773437 -226.28125 266.33203125 C-231.2734736 267.84153759 -236.00936332 267.98677553 -241.0078125 266.5546875 C-244.28622545 264.74422065 -246.45898747 262.43757995 -248.4453125 259.2421875 C-249.5953955 253.74734652 -249.02491691 250.1361732 -246.05078125 245.51171875 C-242.60404752 241.58502102 -238.26175738 240.59979037 -233.3828125 239.1796875 C-225.07871454 236.51107379 -218.57113353 233.45055216 -212.0078125 227.5546875 C-211.24726563 226.91273438 -210.48671875 226.27078125 -209.703125 225.609375 C-177.54918802 196.34817975 -172.28337186 139.8290832 -170.0078125 99.5546875 C-169.88439191 96.01215003 -169.796736 92.47030488 -169.71801758 88.92651367 C-168.93864665 55.79766643 -161.14978976 28.01347376 -136.86572266 3.92480469 C-99.38783287 -31.60025902 -39.46102158 -32.27406767 0 0 Z " fill="#ffffff" transform="translate(322.0078125,176.4453125)"/>
<path d="M0 0 C1.52173828 -0.0309375 1.52173828 -0.0309375 3.07421875 -0.0625 C12.2707016 -0.11083894 12.2707016 -0.11083894 16.25 3.25 C19.65959478 7.12988372 19.70451194 10.92341156 19.53515625 15.87890625 C19.15490516 19.04072014 18.35380479 20.85601524 16.25 23.25 C12.29675747 26.11164262 9.25686582 26.69837702 4.421875 26.98828125 C3.06325415 27.08280531 1.70469503 27.17821982 0.34619141 27.27441406 C-0.71713409 27.34360046 -0.71713409 27.34360046 -1.80194092 27.41418457 C-46.28278493 30.41555771 -84.82219973 47.2890732 -117.75 77.25 C-118.49507813 77.92289062 -119.24015625 78.59578125 -120.0078125 79.2890625 C-155.92718136 113.46336081 -170.93297765 162.41094548 -172.13677979 210.6600647 C-172.85320183 239.29754869 -175.84142029 270.79984805 -196.6875 292.625 C-201.94028642 297.52491209 -206.45503699 301.4681604 -213.875 301.8125 C-218.46627615 301.56527744 -221.27543916 300.37710476 -224.75 297.25 C-227.51470434 292.79417067 -227.24845903 288.33428215 -226.75 283.25 C-225.32996097 279.17922146 -222.81478317 277.51870594 -219.4375 275.0625 C-207.42394464 266.00852392 -203.44998152 249.69817572 -201.3046875 235.4609375 C-200.12533669 226.87294356 -199.79636045 218.29217921 -199.578125 209.63671875 C-198.04611029 151.18626436 -178.96559603 101.98675725 -138.75 59.25 C-138.13382812 58.59128906 -137.51765625 57.93257812 -136.8828125 57.25390625 C-102.2880567 21.41771184 -49.33961964 0.2546561 0 0 Z " fill="#ffffff" transform="translate(249.75,50.75)"/>
<path d="M0 0 C1.45341293 0.00323273 1.45341293 0.00323273 2.93618774 0.00653076 C49.87216078 0.17387768 110.53580437 12.14406103 146.4375 45.3125 C149.08296522 49.43777233 149.09810985 53.55610909 148.4375 58.3125 C146.65163657 62.02160097 145.07526905 63.85271301 141.75 66.25 C136.42606088 67.95767859 131.89168491 67.4698674 126.81225586 65.07446289 C123.9130051 63.40667427 121.07977689 61.65805824 118.25 59.875 C67.28932959 29.09254569 5.89807752 19.3942926 -52.1628418 33.06445312 C-73.69522626 38.49177256 -95.02725749 45.83060023 -113.953125 57.61328125 C-114.84136963 58.16588623 -115.72961426 58.71849121 -116.64477539 59.2878418 C-118.32610953 60.35248192 -119.99339555 61.43979839 -121.64233398 62.55395508 C-127.25028758 66.16419761 -131.89410737 67.40233377 -138.5625 66.3125 C-142.68765131 64.24992435 -144.86776469 62.56850948 -146.5625 58.3125 C-146.86328125 55.91015625 -146.86328125 55.91015625 -146.875 53.375 C-146.89175781 52.54097656 -146.90851563 51.70695312 -146.92578125 50.84765625 C-146.36570998 46.93920192 -145.07348068 44.47679295 -141.90258789 42.03344727 C-139.78388575 40.63837066 -137.62901301 39.34017392 -135.4375 38.0625 C-134.63127197 37.58433838 -133.82504395 37.10617676 -132.99438477 36.61352539 C-130.52668898 35.16252123 -128.04702683 33.73445557 -125.5625 32.3125 C-124.86785645 31.90950684 -124.17321289 31.50651367 -123.45751953 31.09130859 C-97.56077093 16.19032582 -68.07542612 6.64715669 -38.5625 2.3125 C-36.75446899 2.04651001 -36.75446899 2.04651001 -34.90991211 1.77514648 C-23.27388483 0.17985199 -11.73175476 -0.04703114 0 0 Z " fill="#ffffff" transform="translate(255.5625,-0.31250000000000006)"/>
<path d="M0 0 C29.4920098 26.98402787 45.43120862 73.24229531 53.25 111.25 C53.40122314 111.98057617 53.55244629 112.71115234 53.70825195 113.46386719 C56.71546779 129.03822274 57.40719279 144.48763069 57.375 160.3125 C57.37445618 161.32201721 57.37391235 162.33153442 57.37335205 163.37164307 C57.33258601 179.88123539 56.42529309 195.79782001 53 212 C52.78037598 213.04188477 52.56075195 214.08376953 52.33447266 215.15722656 C50.8028696 222.17897078 49.01479694 229.10200291 47 236 C46.7225293 236.95036133 46.44505859 237.90072266 46.15917969 238.87988281 C45.33021869 241.64150716 44.45836212 244.38441754 43.5625 247.125 C43.31072998 247.93646484 43.05895996 248.74792969 42.79956055 249.58398438 C40.84833721 255.22151702 38.14258904 258.86236791 33 262 C28.05579719 263.35039901 23.99271088 262.51408242 19.5 260.1875 C15.23739933 256.45772441 14.37391187 253.55351073 14 248 C14.7409668 244.50927734 14.7409668 244.50927734 15.94921875 240.8359375 C16.3880315 239.46313817 16.82683316 238.0903353 17.265625 236.7175293 C17.49830078 236.00849457 17.73097656 235.29945984 17.97070312 234.56893921 C22.33790478 221.20200741 26.07259006 207.95929534 28 194 C28.11279297 193.21012695 28.22558594 192.42025391 28.34179688 191.60644531 C36.43052587 132.5204338 20.48171709 71.77721824 -15 24 C-15.74507813 23.08863281 -16.49015625 22.17726563 -17.2578125 21.23828125 C-20.61631714 16.92343112 -20.61934186 12.2509419 -20 7 C-18.17499123 2.89373027 -16.28068781 0.82491771 -12.25 -1 C-7.89013988 -2.36397859 -4.06302483 -2.14099512 0 0 Z " fill="#ffffff" transform="translate(455,95)"/>
<path d="M0 0 C1.76310755 0.92936433 3.51684995 1.87667234 5.26171875 2.83984375 C6.18670166 3.33935547 7.11168457 3.83886719 8.06469727 4.35351562 C25.52038839 13.89679723 40.61186495 26.07281109 54.94921875 39.77734375 C55.62597656 40.41285156 56.30273438 41.04835937 57 41.703125 C83.94744462 67.65939924 101.38416603 104.09471214 109.76171875 140.08984375 C109.95668945 140.92362549 110.15166016 141.75740723 110.35253906 142.61645508 C113.7395762 158.05674473 114.29591732 173.20963472 114.26489258 188.9621582 C114.26169505 192.3650613 114.28540966 195.76712328 114.31054688 199.16992188 C114.31281695 201.3528635 114.31352472 203.53580744 114.3125 205.71875 C114.32170975 206.7261171 114.33091949 207.73348419 114.34040833 208.77137756 C114.29505585 215.68016954 113.5326296 220.70954337 108.94921875 226.15234375 C105.57746524 228.89189348 102.27812721 229.12133505 98.01171875 229.05859375 C93.6961064 228.47010116 90.92353364 226.0047648 88.29516602 222.69360352 C86.42892232 218.6500191 86.61134812 215.2005652 86.7265625 210.8046875 C86.73555069 209.92696182 86.74453888 209.04923615 86.75379944 208.14491272 C86.78373879 205.33448244 86.83332466 202.52491927 86.88671875 199.71484375 C87.20428595 181.6805378 86.78814716 163.88454198 82.76171875 146.21484375 C82.54741211 145.2599707 82.33310547 144.30509766 82.11230469 143.32128906 C79.87655348 133.80590661 76.7563924 124.77077188 72.94921875 115.77734375 C72.61937988 114.99407715 72.28954102 114.21081055 71.94970703 113.40380859 C55.39567767 74.81443943 25.32216517 43.93066951 -12.07885742 25.26635742 C-21.42305091 20.48612632 -21.42305091 20.48612632 -24.05078125 14.77734375 C-25.08865662 10.19848184 -24.44719076 6.60065581 -22.42578125 2.40234375 C-15.78235856 -4.9403866 -8.34280442 -4.04298367 0 0 Z " fill="#ffffff" transform="translate(347.05078125,71.22265625)"/>
<path d="M0 0 C9.35489747 7.77198037 15.83684414 18.13630605 18.3125 30.06640625 C18.539375 31.15953125 18.76625 32.25265625 19 33.37890625 C22.61565237 76.04360426 11.19307526 122.91824658 -4.8125 162.19140625 C-5.22016602 163.20533447 -5.62783203 164.2192627 -6.04785156 165.26391602 C-8.26171685 170.52028261 -10.17322028 174.49938523 -14.6875 178.06640625 C-18.41601342 179.30924406 -21.81496761 179.59447885 -25.6875 179.06640625 C-30.04694153 176.84555868 -32.85580464 174.64564466 -34.6875 170.06640625 C-35.40126586 162.13654597 -33.27511268 156.64561626 -30.125 149.44140625 C-19.18602511 123.20993417 -13.18377728 96.21307212 -9.6875 68.06640625 C-9.55472656 67.07253906 -9.42195313 66.07867187 -9.28515625 65.0546875 C-8.57761597 58.88067161 -8.49246096 52.6502104 -8.375 46.44140625 C-8.34510986 45.55775391 -8.31521973 44.67410156 -8.28442383 43.76367188 C-8.21815956 36.14256884 -10.44968303 30.66289781 -14.4375 24.25390625 C-20.10073567 18.74798268 -27.24750758 16.7021472 -34.98828125 16.78125 C-41.23558786 17.44124042 -47.32632356 20.58062477 -51.6875 25.06640625 C-55.44912307 31.04074877 -56.61990592 36.8670126 -57.78125 43.796875 C-58.99042599 48.15929011 -60.85811316 50.87332788 -64.6640625 53.35546875 C-69.6711235 55.1147064 -74.30278748 54.70747686 -79.0625 52.50390625 C-82.19801844 49.59235341 -83.92746719 47.24658671 -84.6875 43.06640625 C-85.15166748 28.59985321 -80.15566099 15.27232318 -70.43359375 4.58984375 C-50.79103581 -14.26448956 -21.96067085 -15.80019196 0 0 Z " fill="#ffffff" transform="translate(288.6875,214.93359375)"/>
<path d="M0 0 C4.15457699 1.79402188 6.50392808 4.25734992 9 8 C9.44555664 11.27954102 9.44555664 11.27954102 9.34765625 14.94140625 C9.33187027 15.59911514 9.31608429 16.25682404 9.29981995 16.9344635 C9.08592211 23.64770015 8.36083846 30.28719446 7.4375 36.9375 C7.26259033 38.21310791 7.08768066 39.48871582 6.9074707 40.80297852 C-2.9495055 110.15242389 -31.9357889 179.41375817 -88.86303711 223.01879883 C-94.33471304 227.10081597 -98.21006283 227.77063704 -105 227 C-108.85544798 225.00342873 -110.59805092 223.60292362 -113 220 C-114.18110879 215.36641936 -114.28208009 211.57088842 -112.39453125 207.09765625 C-109.29604661 202.43691044 -104.38787111 199.36905143 -100 196 C-96.58127001 193.08931657 -93.27936914 190.06635876 -90 187 C-89.06414062 186.12988281 -88.12828125 185.25976562 -87.1640625 184.36328125 C-74.22909874 172.05333973 -63.86414126 157.44813985 -55 142 C-54.55946289 141.23268555 -54.11892578 140.46537109 -53.66503906 139.67480469 C-41.28491271 117.78772539 -32.99875909 94.36674588 -27 70 C-26.76974121 69.06639648 -26.53948242 68.13279297 -26.30224609 67.17089844 C-22.67664191 52.06731769 -20.61490724 36.78257075 -18.78662109 21.37597656 C-18.64111816 20.2039695 -18.64111816 20.2039695 -18.49267578 19.00828552 C-18.31023348 17.53832269 -18.13694379 16.06718297 -17.97460938 14.59486389 C-17.24892555 8.8565556 -15.69138514 5.45537791 -11.3125 1.6875 C-6.97890786 -0.52017901 -4.82723092 -0.53635899 0 0 Z " fill="#ffffff" transform="translate(348,285)"/>
<path d="M0 0 C3.2044343 2.52263977 5.73211647 5.08108727 7 9 C7.65132661 14.75338501 6.22630291 18.35354544 3 23 C1.10112406 25.15704457 -0.96231621 27.10334545 -3.0625 29.0625 C-9.7603869 35.53573375 -15.47652585 42.51360012 -21 50 C-21.64582031 50.87398437 -22.29164062 51.74796875 -22.95703125 52.6484375 C-49.39460648 89.52975012 -64.5243704 133.46060733 -66.19921875 178.8203125 C-66.23055908 179.58827148 -66.26189941 180.35623047 -66.29418945 181.14746094 C-66.34615386 182.5798574 -66.38124182 184.01301892 -66.39526367 185.44628906 C-66.5609472 190.37121639 -67.95987418 193.17295148 -71 197 C-74.68864284 200.16169386 -78.07613449 200.52014779 -82.78125 200.35546875 C-86.26723014 199.79697545 -88.38200616 198.29872629 -91 196 C-94.22883896 190.95334197 -93.33936279 184.96453434 -93.3125 179.1875 C-93.30686035 177.9308252 -93.3012207 176.67415039 -93.29541016 175.37939453 C-92.50862564 113.79987411 -65.51955282 53.96497671 -23 10 C-22.15179688 9.10023437 -21.30359375 8.20046875 -20.4296875 7.2734375 C-14.11552911 0.70921343 -9.24931861 -2.61868186 0 0 Z " fill="#ffffff" transform="translate(93,69)"/>
<path d="M0 0 C3.93577128 4.17430287 4.43860453 7.53713363 4.31640625 13.109375 C3.78442654 19.55860589 2.40305073 25.86742285 1.0625 32.1875 C0.90666443 32.93260834 0.75082886 33.67771667 0.590271 34.44540405 C-6.03700241 65.94112811 -16.02344222 100.64719953 -37.9375 125.1875 C-38.64519531 126.02539062 -39.35289062 126.86328125 -40.08203125 127.7265625 C-53.30881849 143.06129657 -70.71705929 153.37399264 -90.9375 156.1875 C-103.7375 157.05416667 -103.7375 157.05416667 -108.9375 153.1875 C-112.36313665 149.41929968 -112.46265366 145.51551 -112.2734375 140.625 C-111.74656335 136.8020992 -110.66387682 134.91387682 -107.9375 132.1875 C-103.0214864 129.63765558 -97.50932599 128.91021848 -92.125 127.875 C-75.4285882 124.37413946 -62.63948144 114.11876069 -53.18457031 100.13916016 C-36.60122276 74.18628617 -28.41025634 43.61394045 -23.74755859 13.43554688 C-22.70084356 7.20944904 -21.55984145 3.57836269 -16.9375 -0.8125 C-11.66358514 -4.18194561 -5.12026774 -3.15931414 0 0 Z " fill="#ffffff" transform="translate(220.9375,315.8125)"/>
<path d="M0 0 C3.50922325 2.03242513 5.68973373 4.06920119 7 8 C7.7068179 15.65234858 6.23968575 22.67683713 4.375 30.0625 C4.10284668 31.16013672 3.83069336 32.25777344 3.55029297 33.38867188 C-3.86206641 62.55961701 -16.5838661 92.29458575 -43 109 C-50.4277403 113.20619876 -58.22587402 117.41857127 -67 116 C-71.36045847 113.77863437 -74.13277421 111.56432971 -76 107 C-76.55107696 102.11903264 -76.50576786 97.95510771 -73.78125 93.64453125 C-70.83081917 90.92055892 -67.19692249 89.77113047 -63.49316406 88.33056641 C-48.8808754 82.52428374 -39.48614548 69.40125853 -33.06494141 55.51074219 C-27.39130074 42.13437341 -22.81578418 27.88323867 -20.31542969 13.55541992 C-19.24026944 7.73880297 -17.15607636 3.55438063 -12.3125 0.0625 C-7.90957847 -1.34975785 -4.43330062 -1.31415697 0 0 Z " fill="#ffffff" transform="translate(117,289)"/>
<path d="M0 0 C3.45652383 1.88331386 5.60265538 4.23986247 7.4375 7.75 C12.86077906 39.08450126 -11.70051544 87.33674371 -29.45703125 112.546875 C-39.65365816 126.41293481 -39.65365816 126.41293481 -46.9453125 127.84375 C-50.40421312 128.10678427 -52.85210242 127.39233931 -56 126 C-60.4609963 121.30421443 -61.44444615 117.99325502 -61.37060547 111.66113281 C-60.74435082 107.1643109 -58.35425257 104.33392702 -55.5625 100.875 C-54.44639886 99.38686514 -53.33580055 97.89458881 -52.23046875 96.3984375 C-51.6792334 95.65819336 -51.12799805 94.91794922 -50.56005859 94.15527344 C-35.38681241 73.19292331 -27.00043698 46.09314315 -21.70703125 21.0390625 C-21.50118408 20.08547852 -21.29533691 19.13189453 -21.08325195 18.14941406 C-20.70759125 16.36247049 -20.35646273 14.570104 -20.03588867 12.77246094 C-18.90064461 7.29121483 -17.16952628 4.52847542 -12.73632812 1.08056641 C-8.56732599 -1.51392227 -4.58416919 -1.25653031 0 0 Z " fill="#ffffff" transform="translate(445,340)"/>
<path d="M0 0 C4.10655915 1.81452614 6.6323122 4.19478746 9 8 C10.48182933 13.6494743 10.21598573 16.89792119 7.35546875 21.96484375 C5.94526302 24.08218434 4.41833692 26.02732854 2.8125 28 C-12.1874619 46.822222 -20.48995459 71.72053814 -21.5625 95.625 C-22.1908631 109.25774731 -22.1908631 109.25774731 -27.625 114.5625 C-32.8692523 116.79616301 -37.4933586 117.00265656 -42.8125 114.875 C-46.69708964 111.54535174 -48.79385921 108.42782815 -49.53125 103.3203125 C-49.54860116 101.92194385 -49.53635471 100.52300368 -49.5 99.125 C-49.48078491 97.96738159 -49.48078491 97.96738159 -49.46118164 96.78637695 C-48.6518382 72.41241076 -41.71199102 49.26745063 -30 28 C-29.43539062 26.94554687 -28.87078125 25.89109375 -28.2890625 24.8046875 C-25.19725066 19.2452324 -21.73363088 14.03335447 -17.9375 8.9375 C-17.53805176 8.38876221 -17.13860352 7.84002441 -16.72705078 7.2746582 C-12.20522598 1.39554981 -7.36500338 -0.80345491 0 0 Z " fill="#ffffff" transform="translate(151,153)"/>
<path d="M0 0 C4.38410756 2.19205378 7.13092657 4.43115383 9 9 C10.19586413 16.70667997 7.01908166 21.57979674 3 28 C2.40832031 28.96164062 1.81664062 29.92328125 1.20703125 30.9140625 C-15.25495653 56.64228257 -40.67034684 80.03471244 -70 90 C-75.05598158 90.3522388 -78.27045871 90.02909745 -82.484375 87.32421875 C-85.25251794 84.90566087 -86.06790213 82.49536701 -87 79 C-87.3216972 73.80257956 -86.20445958 70.52957927 -82.70800781 66.5324707 C-79.25500215 63.43434083 -75.0204378 61.63046899 -70.875 59.625 C-62.99109887 55.64834976 -55.80461896 51.67810177 -49 46 C-48.16726562 45.30519531 -47.33453125 44.61039062 -46.4765625 43.89453125 C-34.41538301 33.41058293 -25.62779648 21.51060429 -17.1796875 8.11328125 C-16.66664063 7.31277344 -16.15359375 6.51226562 -15.625 5.6875 C-15.20476562 5.01074219 -14.78453125 4.33398438 -14.3515625 3.63671875 C-10.66181804 -0.83149781 -5.35515795 -0.75306909 0 0 Z " fill="#ffffff" transform="translate(252,410)"/>
</svg>